1103211_Jog01_kinetics.mot
version=1
nRows=15
nColumns=19
inDegrees=yes
endheader
time	ground_force_vx	ground_force_vy	ground_force_vz	ground_force_px	ground_force_py	ground_force_pz	1_ground_force_vx	1_ground_force_vy	1_ground_force_vz	1_ground_force_px	1_ground_force_py	1_ground_force_pz	ground_torque_x	ground_torque_y	ground_torque_z	1_ground_torque_x	1_ground_torque_y	1_ground_torque_z
      0.64266664	      0.00000000	      0.00000000	      0.00000000	      1.46698666	      0.00000000	      0.18849996	    110.46128845	   1086.56701660	     -2.86910796	      1.70526588	     -0.00953000	     -0.03077519	      0.00000000	      0.00000000	      0.00000000	      0.00000000	     -2.39894676	      0.00000000
      0.64333332	      0.00000000	      0.00000000	      0.00000000	      1.46698666	      0.00000000	      0.18849996	    111.66178131	   1078.21508789	     -3.27374506	      1.70554459	     -0.00953000	     -0.03072792	      0.00000000	      0.00000000	      0.00000000	      0.00000000	     -2.34121346	      0.00000000
      0.64399999	      0.00000000	      0.00000000	      0.00000000	      1.46698666	      0.00000000	      0.18849996	    112.89279938	   1069.80639648	     -3.66662908	      1.70581663	     -0.00953000	     -0.03068051	      0.00000000	      0.00000000	      0.00000000	     -0.00000000	     -2.28439260	      0.00000000
      0.64466667	      0.00000000	      0.00000000	      0.00000000	      1.46698666	      0.00000000	      0.18849996	    114.15596008	   1061.33789063	     -4.04862404	      1.70608187	     -0.00953000	     -0.03063315	      0.00000000	      0.00000000	      0.00000000	      0.00000000	     -2.22846031	      0.00000000
      0.64533335	      0.00000000	      0.00000000	      0.00000000	      1.46698666	      0.00000000	      0.18849996	    115.45188904	   1052.80590820	     -4.42066002	      1.70634031	     -0.00953000	     -0.03058604	      0.00000000	      0.00000000	      0.00000000	      0.00000000	     -2.17334628	      0.00000000
      0.64600003	      0.00000000	      0.00000000	      0.00000000	      1.46698666	      0.00000000	      0.18849996	    116.78022766	   1044.20788574	     -4.78368759	      1.70659208	     -0.00953000	     -0.03053934	      0.00000000	      0.00000000	      0.00000000	      0.00000000	     -2.11894059	      0.00000000
      0.64666665	      0.00000000	      0.00000000	      0.00000000	      1.46698666	      0.00000000	      0.18849996	    118.13961029	   1035.54101563	     -5.13862658	      1.70683718	     -0.00953000	     -0.03049324	      0.00000000	      0.00000000	      0.00000000	      0.00000000	     -2.06510091	      0.00000000
      0.64733332	      0.00000000	      0.00000000	      0.00000000	      1.46698666	      0.00000000	      0.18849996	    119.52768707	   1026.80310059	     -5.48630905	      1.70707583	     -0.00953000	     -0.03044786	      0.00000000	      0.00000000	      0.00000000	      0.00000000	     -2.01166248	      0.00000000
      0.64800000	      0.00000000	      0.00000000	      0.00000000	      1.46698666	      0.00000000	      0.18849996	    120.94113922	   1017.99298096	     -5.82742548	      1.70730817	     -0.00953000	     -0.03040332	      0.00000000	      0.00000000	      0.00000000	      0.00000000	     -1.95844936	      0.00000000
      0.64866668	      0.00000000	      0.00000000	      0.00000000	      1.46698666	      0.00000000	      0.18849996	    122.37570953	   1009.10961914	     -6.16247177	      1.70753443	     -0.00953000	     -0.03035969	      0.00000000	      0.00000000	      0.00000000	      0.00000000	     -1.90528524	      0.00000000
      0.64933336	      0.00000000	      0.00000000	      0.00000000	      1.46698666	      0.00000000	      0.18849996	    123.82626343	   1000.15301514	     -6.49170828	      1.70775473	     -0.00953000	     -0.03031703	      0.00000000	      0.00000000	      0.00000000	      0.00000000	     -1.85200548	     -0.00000000
      0.64999998	      0.00000000	      0.00000000	      0.00000000	      1.46698666	      0.00000000	      0.18849996	    125.28691864	    991.12377930	     -6.81512451	      1.70796943	     -0.00953000	     -0.03027532	      0.00000000	      0.00000000	      0.00000000	      0.00000000	     -1.79846787	      0.00000000
      0.65066665	      0.00000000	      0.00000000	      0.00000000	      1.46698666	      0.00000000	      0.18849996	    126.75109100	    982.02337646	     -7.13242245	      1.70817864	     -0.00953000	     -0.03023456	      0.00000000	      0.00000000	      0.00000000	     -0.00000000	     -1.74456131	      0.00000000
      0.65133333	      0.00000000	      0.00000000	      0.00000000	      1.46698666	      0.00000000	      0.18849996	    128.21170044	    972.85400391	     -7.44300890	      1.70838273	     -0.00953000	     -0.03019471	      0.00000000	      0.00000000	      0.00000000	     -0.00000000	     -1.69021285	      0.00000000
      0.65200001	      0.00000000	      0.00000000	      0.00000000	      1.46698666	      0.00000000	      0.18849996	    129.66127014	    963.61846924	     -7.74600887	      1.70858204	     -0.00953000	     -0.03015573	      0.00000000	      0.00000000	      0.00000000	      0.00000000	     -1.63539183	      0.00000000
